<svg width="11" height="16" viewBox="0 0 11 16" fill="none" xmlns="http://www.w3.org/2000/svg">
<path d="M0.616 15.008V14.672C1.02133 14.6293 1.368 14.5067 1.656 14.304C1.95467 14.1013 2.184 13.7493 2.344 13.248C2.504 12.7467 2.584 12.0427 2.584 11.136V2.368C2.584 1.97333 2.552 1.68533 2.488 1.504C2.43467 1.312 2.32267 1.184 2.152 1.12C1.98133 1.04533 1.736 1.00267 1.416 0.992V0.672C1.68267 0.682666 2.04533 0.693333 2.504 0.704C2.96267 0.714666 3.44267 0.719999 3.944 0.719999C4.456 0.719999 4.952 0.714666 5.432 0.704C5.92267 0.693333 6.328 0.682666 6.648 0.672V0.992C6.31733 1.00267 6.06667 1.04533 5.896 1.12C5.72533 1.184 5.61333 1.312 5.56 1.504C5.50667 1.68533 5.48 1.97333 5.48 2.368V8.224C5.48 8.66133 5.48 9.136 5.48 9.648C5.48 10.1493 5.45867 10.64 5.416 11.12C5.384 11.6 5.31467 12.0267 5.208 12.4C4.984 13.136 4.49333 13.7547 3.736 14.256C2.97867 14.7573 1.93867 15.008 0.616 15.008ZM9.06738 9.616C9.52604 9.616 9.88338 9.728 10.1394 9.952C10.406 10.176 10.5394 10.496 10.5394 10.912C10.5394 11.3387 10.406 11.664 10.1394 11.888C9.88338 12.112 9.52604 12.224 9.06738 12.224C8.59804 12.224 8.23538 12.112 7.97938 11.888C7.72338 11.664 7.59538 11.3387 7.59538 10.912C7.59538 10.496 7.72338 10.176 7.97938 9.952C8.23538 9.728 8.59804 9.616 9.06738 9.616Z" fill="white"/>
</svg>
