<svg width="232" height="55" viewBox="0 0 232 55" fill="none" xmlns="http://www.w3.org/2000/svg">
<path d="M0.567059 54.2247V52.9709C2.07961 52.8117 3.37324 52.3539 4.44794 51.5976C5.56245 50.8414 6.41824 49.5278 7.01529 47.6571C7.61235 45.7863 7.91088 43.1592 7.91088 39.7759V7.05706C7.91088 5.58431 7.79147 4.50961 7.55265 3.83294C7.35363 3.11647 6.93569 2.63882 6.29882 2.4C5.66196 2.12137 4.74647 1.96216 3.55235 1.92235V0.728237C4.54745 0.768041 5.90078 0.807844 7.61235 0.847647C9.32392 0.887451 11.1151 0.907353 12.9859 0.907353C14.8965 0.907353 16.7474 0.887451 18.5385 0.847647C20.3695 0.807844 21.8821 0.768041 23.0762 0.728237V1.92235C21.8423 1.96216 20.9069 2.12137 20.27 2.4C19.6331 2.63882 19.2152 3.11647 19.0162 3.83294C18.8172 4.50961 18.7176 5.58431 18.7176 7.05706V28.9094C18.7176 30.5414 18.7176 32.3126 18.7176 34.2232C18.7176 36.094 18.638 37.925 18.4788 39.7162C18.3594 41.5074 18.1007 43.0995 17.7026 44.4926C16.8668 47.2391 15.0358 49.5477 12.2097 51.4185C9.38363 53.2893 5.50274 54.2247 0.567059 54.2247ZM40.3564 11.2365C43.3417 11.2365 45.9488 11.7738 48.1778 12.8485C50.4467 13.8834 52.198 15.595 53.432 17.9832C54.7057 20.3715 55.3425 23.5558 55.3425 27.5362C55.3425 31.5166 54.7057 34.7009 53.432 37.0891C52.198 39.4774 50.4467 41.2088 48.1778 42.2835C45.9488 43.3184 43.3417 43.8359 40.3564 43.8359C37.4109 43.8359 34.8037 43.3184 32.5349 42.2835C30.3059 41.2088 28.5545 39.4774 27.2808 37.0891C26.007 34.7009 25.3702 31.5166 25.3702 27.5362C25.3702 23.5558 26.007 20.3715 27.2808 17.9832C28.5545 15.595 30.3059 13.8834 32.5349 12.8485C34.8037 11.7738 37.4109 11.2365 40.3564 11.2365ZM40.3564 12.4306C38.9632 12.4306 37.789 13.6247 36.8337 16.0129C35.9182 18.3614 35.4605 22.2025 35.4605 27.5362C35.4605 32.8699 35.9182 36.7309 36.8337 39.1191C37.789 41.4675 38.9632 42.6418 40.3564 42.6418C41.7893 42.6418 42.9635 41.4675 43.879 39.1191C44.7945 36.7309 45.2522 32.8699 45.2522 27.5362C45.2522 22.2025 44.7945 18.3614 43.879 16.0129C42.9635 13.6247 41.7893 12.4306 40.3564 12.4306ZM89.3338 11.4156V36.4921C89.3338 38.2832 89.5926 39.6167 90.11 40.4924C90.6673 41.3282 91.6027 41.7462 92.9162 41.7462V43C91.6823 42.8806 90.4484 42.8209 89.2144 42.8209C87.3835 42.8209 85.6719 42.8806 84.0797 43C82.5274 43.1194 81.0546 43.3383 79.6615 43.6568V38.8206C78.7062 40.6118 77.3927 41.9054 75.7209 42.7015C74.0889 43.4577 72.2182 43.8359 70.1086 43.8359C68.3572 43.8359 66.9441 43.617 65.8694 43.1791C64.8345 42.7413 64.0385 42.1641 63.4812 41.4476C62.8443 40.7312 62.3866 39.7759 62.108 38.5818C61.8293 37.3478 61.69 35.7358 61.69 33.7456V18.5803C61.69 16.7891 61.4313 15.4756 60.9138 14.6397C60.3964 13.764 59.461 13.3262 58.1077 13.3262V12.0724C59.3814 12.1918 60.6153 12.2515 61.8094 12.2515C63.6404 12.2515 65.352 12.1918 66.9441 12.0724C68.5363 11.9131 70.009 11.6942 71.3624 11.4156V36.6115C71.3624 37.527 71.4619 38.3031 71.6609 38.94C71.8599 39.5769 72.1983 40.0744 72.6759 40.4326C73.1535 40.7909 73.7904 40.97 74.5865 40.97C75.502 40.97 76.3379 40.7312 77.0941 40.2535C77.8504 39.7759 78.4674 39.1191 78.945 38.2832C79.4227 37.4075 79.6615 36.4324 79.6615 35.3576V18.5803C79.6615 16.7891 79.4028 15.4756 78.8853 14.6397C78.3679 13.764 77.4325 13.3262 76.0791 13.3262V12.0724C77.3529 12.1918 78.5868 12.2515 79.7809 12.2515C81.6119 12.2515 83.3235 12.1918 84.9156 12.0724C86.5078 11.9131 87.9805 11.6942 89.3338 11.4156ZM116.575 11.2365C117.928 11.2365 119.003 11.535 119.799 12.1321C120.595 12.6893 121.172 13.4257 121.531 14.3412C121.889 15.2169 122.068 16.0925 122.068 16.9682C122.068 18.6002 121.59 19.9137 120.635 20.9088C119.72 21.9039 118.506 22.4015 116.993 22.4015C115.401 22.4015 114.187 22.0432 113.351 21.3268C112.515 20.5705 112.097 19.5754 112.097 18.3415C112.097 17.1075 112.356 16.0925 112.873 15.2965C113.431 14.5004 114.107 13.8237 114.903 13.2665C114.306 13.1869 113.729 13.2665 113.172 13.5053C112.535 13.6645 111.938 13.963 111.381 14.4009C110.823 14.8387 110.346 15.3562 109.948 15.9532C109.55 16.5503 109.231 17.2071 108.992 17.9235C108.793 18.6002 108.694 19.2968 108.694 20.0132V36.8503C108.694 38.7609 109.112 40.0545 109.948 40.7312C110.823 41.4078 112.197 41.7462 114.067 41.7462V43C113.152 42.9602 111.799 42.9204 110.007 42.8806C108.216 42.801 106.365 42.7612 104.455 42.7612C102.743 42.7612 101.012 42.801 99.2604 42.8806C97.5488 42.9204 96.2751 42.9602 95.4392 43V41.7462C96.7528 41.7462 97.6682 41.4476 98.1857 40.8506C98.743 40.2535 99.0216 39.1191 99.0216 37.4474V18.5803C99.0216 16.7891 98.7629 15.4756 98.2454 14.6397C97.728 13.764 96.7926 13.3262 95.4392 13.3262V12.0724C96.713 12.1918 97.9469 12.2515 99.141 12.2515C100.932 12.2515 102.624 12.1918 104.216 12.0724C105.848 11.9131 107.341 11.6942 108.694 11.4156V16.3115C109.172 15.2766 109.789 14.381 110.545 13.6247C111.341 12.8684 112.236 12.2913 113.232 11.8932C114.266 11.4554 115.381 11.2365 116.575 11.2365ZM146.585 11.2365C148.337 11.2365 149.73 11.4554 150.765 11.8932C151.839 12.3311 152.655 12.8883 153.213 13.565C153.849 14.3213 154.307 15.2965 154.586 16.4906C154.904 17.6847 155.063 19.2968 155.063 21.3268V37.4474C155.063 39.1191 155.322 40.2535 155.84 40.8506C156.397 41.4476 157.332 41.7462 158.646 41.7462V43C157.85 42.9602 156.656 42.9204 155.063 42.8806C153.511 42.801 151.999 42.7612 150.526 42.7612C148.894 42.7612 147.322 42.801 145.809 42.8806C144.297 42.9204 143.162 42.9602 142.406 43V41.7462C143.52 41.7462 144.297 41.4476 144.734 40.8506C145.172 40.2535 145.391 39.1191 145.391 37.4474V18.4609C145.391 17.5454 145.292 16.7692 145.093 16.1324C144.894 15.4557 144.555 14.9581 144.078 14.6397C143.6 14.2815 142.923 14.1024 142.048 14.1024C141.132 14.1024 140.276 14.3412 139.48 14.8188C138.724 15.2965 138.107 15.9731 137.629 16.8488C137.192 17.6847 136.973 18.64 136.973 19.7147V37.4474C136.973 39.1191 137.192 40.2535 137.629 40.8506C138.067 41.4476 138.843 41.7462 139.958 41.7462V43C139.202 42.9602 138.107 42.9204 136.674 42.8806C135.241 42.801 133.788 42.7612 132.316 42.7612C130.684 42.7612 129.052 42.801 127.42 42.8806C125.788 42.9204 124.554 42.9602 123.718 43V41.7462C125.031 41.7462 125.947 41.4476 126.464 40.8506C127.022 40.2535 127.3 39.1191 127.3 37.4474V18.5803C127.3 16.7891 127.042 15.4756 126.524 14.6397C126.007 13.764 125.071 13.3262 123.718 13.3262V12.0724C124.992 12.1918 126.226 12.2515 127.42 12.2515C129.211 12.2515 130.903 12.1918 132.495 12.0724C134.127 11.9131 135.619 11.6942 136.973 11.4156V16.2518C137.928 14.4208 139.222 13.1272 140.853 12.3709C142.525 11.6146 144.436 11.2365 146.585 11.2365ZM176.327 11.2365C179.83 11.2365 182.576 12.2714 184.567 14.3412C186.557 16.411 187.552 19.8142 187.552 24.5509H168.386L168.327 23.4165H179.432C179.511 21.4661 179.432 19.6749 179.193 18.0429C178.954 16.3712 178.556 15.0377 177.999 14.0426C177.481 13.0475 176.785 12.55 175.909 12.55C174.715 12.55 173.7 13.4058 172.864 15.1174C172.028 16.8289 171.511 19.7346 171.312 23.8344L171.551 24.2524C171.471 24.6902 171.431 25.1479 171.431 25.6256C171.431 26.0634 171.431 26.5411 171.431 27.0585C171.431 29.805 171.79 31.9942 172.506 33.6262C173.262 35.2581 174.198 36.4125 175.312 37.0891C176.427 37.7658 177.581 38.1041 178.775 38.1041C179.452 38.1041 180.208 38.0046 181.044 37.8056C181.88 37.6066 182.756 37.1886 183.671 36.5518C184.586 35.9149 185.462 34.9795 186.298 33.7456L187.313 34.1038C186.875 35.6562 186.119 37.1886 185.044 38.7012C184.009 40.1739 182.676 41.4078 181.044 42.4029C179.412 43.3582 177.442 43.8359 175.133 43.8359C172.506 43.8359 170.158 43.2985 168.088 42.2238C166.018 41.1093 164.366 39.3778 163.132 37.0294C161.938 34.6412 161.341 31.5365 161.341 27.7153C161.341 23.9339 161.998 20.8292 163.311 18.4012C164.625 15.9731 166.416 14.182 168.685 13.0276C170.954 11.8335 173.501 11.2365 176.327 11.2365ZM219.685 12.0724V13.3262C218.929 13.565 218.192 14.0625 217.476 14.8188C216.799 15.5751 216.142 16.8886 215.505 18.7594L207.565 41.6865L204.937 47.2391L191.265 16.6697C190.588 15.1572 189.931 14.2218 189.295 13.8635C188.658 13.5053 188.12 13.3262 187.682 13.3262V12.0724C189.155 12.1918 190.668 12.2913 192.22 12.3709C193.772 12.4107 195.245 12.4306 196.638 12.4306C198.39 12.4306 199.942 12.3908 201.295 12.3112C202.649 12.2316 203.922 12.152 205.117 12.0724V13.3262C204.36 13.3262 203.644 13.366 202.967 13.4456C202.291 13.5252 201.813 13.764 201.534 14.1621C201.295 14.5203 201.375 15.1771 201.773 16.1324L209.356 34.2829L208.759 34.7009L212.401 24.1329C213.237 21.7049 213.595 19.7147 213.475 18.1624C213.356 16.61 212.898 15.4358 212.102 14.6397C211.306 13.8436 210.291 13.4058 209.057 13.3262V12.0724C209.654 12.1122 210.311 12.152 211.027 12.1918C211.784 12.2316 212.52 12.2714 213.237 12.3112C213.953 12.3112 214.57 12.3112 215.087 12.3112C215.844 12.3112 216.68 12.2913 217.595 12.2515C218.511 12.2117 219.207 12.152 219.685 12.0724ZM207.565 41.6865L205.176 48.4929C204.818 49.488 204.42 50.3438 203.982 51.0603C203.584 51.7768 203.106 52.3539 202.549 52.7918C201.992 53.2296 201.276 53.5679 200.4 53.8068C199.564 54.0854 198.489 54.2247 197.176 54.2247C196.141 54.2247 195.046 54.0456 193.892 53.6874C192.777 53.3689 191.822 52.8316 191.026 52.0753C190.27 51.319 189.892 50.304 189.892 49.0303C189.892 47.7168 190.369 46.662 191.325 45.8659C192.28 45.1096 193.573 44.7315 195.205 44.7315C196.678 44.7315 197.852 45.0698 198.728 45.7465C199.644 46.4231 200.101 47.4381 200.101 48.7915C200.101 49.6274 199.823 50.4433 199.265 51.2394C198.708 52.0355 197.832 52.6325 196.638 53.0306C196.917 53.0704 197.216 53.0903 197.534 53.0903C197.892 53.1301 198.171 53.15 198.37 53.15C199.604 53.15 200.698 52.752 201.654 51.9559C202.609 51.1996 203.365 50.0055 203.922 48.3735L206.012 42.0447L207.565 41.6865ZM225.624 34.1038C227.335 34.1038 228.669 34.5218 229.624 35.3576C230.619 36.1935 231.117 37.3876 231.117 38.94C231.117 40.5322 230.619 41.7462 229.624 42.5821C228.669 43.4179 227.335 43.8359 225.624 43.8359C223.872 43.8359 222.519 43.4179 221.564 42.5821C220.608 41.7462 220.131 40.5322 220.131 38.94C220.131 37.3876 220.608 36.1935 221.564 35.3576C222.519 34.5218 223.872 34.1038 225.624 34.1038Z" fill="#202131"/>
</svg>
